<svg id="Layer_1" data-name="Layer 1" xmlns="http://www.w3.org/2000/svg" width="120" height="97.04" viewBox="0 0 120 97.04"><defs><style>.cls-1{fill:#fff;}</style></defs><path class="cls-1" d="M43.61,0A48.77,48.77,0,0,1,68.3,6.6c7.15,4.21,12.74,9.9,16,17.64a52.08,52.08,0,0,1,1.76,5.56c.2.67.09.77-.62.74a46,46,0,0,0-14.71,1.82,39.18,39.18,0,0,0-18.9,11.78A29,29,0,0,0,44.48,61a27.67,27.67,0,0,0,1.09,10.47c.23.76.21.87-.58.84-2.49-.06-5-.11-7.49-.3A44.53,44.53,0,0,1,29,70.32a4,4,0,0,0-3.2.45L16.74,76c-.22.13-.43.26-.65.37a1.45,1.45,0,0,1-1.67-.13,1.47,1.47,0,0,1-.51-1.59c.45-1.7.91-3.4,1.36-5.1.24-.9.48-1.8.73-2.71a2.89,2.89,0,0,0-1.2-3.46,39,39,0,0,1-8.36-8.27A31.37,31.37,0,0,1,0,35.61,30.84,30.84,0,0,1,5.37,18.76,40.55,40.55,0,0,1,23.75,3.93,50.6,50.6,0,0,1,43.61,0ZM57.79,18.93a5.71,5.71,0,1,0,5.72,5.64A5.67,5.67,0,0,0,57.79,18.93ZM34.62,24.64a5.7,5.7,0,1,0-11.39,0,5.7,5.7,0,1,0,11.39,0Z"/><path class="cls-1" d="M85.63,33.24a39,39,0,0,1,20.47,6.43,29.72,29.72,0,0,1,12,14.21c3.22,8.29,2.28,16.23-2.44,23.72a30.75,30.75,0,0,1-7.74,8.22c-1.45,1.08-1.67,1.68-1.21,3.44.52,2,1,3.95,1.59,5.92a1.35,1.35,0,0,1-.4,1.6,1.32,1.32,0,0,1-1.6,0c-2.4-1.38-4.82-2.74-7.19-4.17A4.87,4.87,0,0,0,95,92a40.58,40.58,0,0,1-15.15,1.33C70.73,92.45,62.62,89.16,56,82.63a26.84,26.84,0,0,1-8-15.36c-1.2-8.1,1.16-15.19,6.4-21.36A34.87,34.87,0,0,1,69.43,35.73C74.07,34,78.86,33.24,85.63,33.24ZM71.76,58.48a4.73,4.73,0,0,0,4.77-4.7,4.76,4.76,0,1,0-9.52,0A4.74,4.74,0,0,0,71.76,58.48Zm24.09,0a4.69,4.69,0,0,0,4.73-4.73,4.75,4.75,0,1,0-4.73,4.73Z"/></svg>